<svg width="10" height="6" viewBox="0 0 10 6" fill="none" xmlns="http://www.w3.org/2000/svg">
<path d="M5.00002 3.92506L1.9125 0.837541C1.68469 0.609736 1.31535 0.609736 1.08754 0.837541C0.859736 1.06535 0.859736 1.43469 1.08754 1.6625L4.58754 5.1625C4.81535 5.39031 5.18469 5.39031 5.4125 5.1625L8.9125 1.6625C9.14031 1.43469 9.14031 1.06535 8.9125 0.837541C8.68469 0.609736 8.31535 0.609736 8.08754 0.837541L5.00002 3.92506Z" fill="#646464"/>
<mask id="mask0_103_671" style="mask-type:luminance" maskUnits="userSpaceOnUse" x="0" y="0" width="10" height="6">
<path d="M5.00002 3.92506L1.9125 0.837541C1.68469 0.609736 1.31535 0.609736 1.08754 0.837541C0.859736 1.06535 0.859736 1.43469 1.08754 1.6625L4.58754 5.1625C4.81535 5.39031 5.18469 5.39031 5.4125 5.1625L8.9125 1.6625C9.14031 1.43469 9.14031 1.06535 8.9125 0.837541C8.68469 0.609736 8.31535 0.609736 8.08754 0.837541L5.00002 3.92506Z" fill="white"/>
</mask>
<g mask="url(#mask0_103_671)">
</g>
</svg>
